<svg width="88" height="88" viewBox="0 0 88 88" fill="none" xmlns="http://www.w3.org/2000/svg">
<g clip-path="url(#clip0_25_70)">
<mask id="mask0_25_70" style="mask-type:luminance" maskUnits="userSpaceOnUse" x="0" y="0" width="88" height="88">
<path d="M88 0H0V88H88V0Z" fill="white"/>
</mask>
<g mask="url(#mask0_25_70)">
<path d="M71 0H17C7.61116 0 0 7.61116 0 17V71C0 80.3888 7.61116 88 17 88H71C80.3888 88 88 80.3888 88 71V17C88 7.61116 80.3888 0 71 0Z" fill="#FF4C69"/>
<path d="M71 0H17C7.61116 0 0 7.61116 0 17V71C0 80.3888 7.61116 88 17 88H71C80.3888 88 88 80.3888 88 71V17C88 7.61116 80.3888 0 71 0Z" fill="url(#paint0_linear_25_70)" fill-opacity="0.5" style="mix-blend-mode:hard-light"/>
<path d="M56 4H32C16.536 4 4 16.536 4 32V56C4 71.464 16.536 84 32 84H56C71.464 84 84 71.464 84 56V32C84 16.536 71.464 4 56 4Z" fill="#FF4C69"/>
<g filter="url(#filter0_i_25_70)">
<path d="M44.3666 50.6C47.8092 50.6 50.6 47.8092 50.6 44.3666C50.6 40.9241 47.8092 38.1333 44.3666 38.1333C40.9241 38.1333 38.1333 40.9241 38.1333 44.3666C38.1333 47.8092 40.9241 50.6 44.3666 50.6Z" fill="white"/>
</g>
<g filter="url(#filter1_f_25_70)">
<path d="M168 67H-79V150H168V67Z" fill="#1D222C" fill-opacity="0.5"/>
</g>
</g>
</g>
<defs>
<filter id="filter0_i_25_70" x="38.1333" y="38.1333" width="12.4668" height="14.4666" filterUnits="userSpaceOnUse" color-interpolation-filters="sRGB">
<feFlood flood-opacity="0" result="BackgroundImageFix"/>
<feBlend mode="normal" in="SourceGraphic" in2="BackgroundImageFix" result="shape"/>
<feColorMatrix in="SourceAlpha" type="matrix" values="0 0 0 0 0 0 0 0 0 0 0 0 0 0 0 0 0 0 127 0" result="hardAlpha"/>
<feOffset dy="2"/>
<feGaussianBlur stdDeviation="2"/>
<feComposite in2="hardAlpha" operator="arithmetic" k2="-1" k3="1"/>
<feColorMatrix type="matrix" values="0 0 0 0 0 0 0 0 0 0 0 0 0 0 0 0 0 0 0.15 0"/>
<feBlend mode="normal" in2="shape" result="effect1_innerShadow_25_70"/>
</filter>
<filter id="filter1_f_25_70" x="-131" y="15" width="351" height="187" filterUnits="userSpaceOnUse" color-interpolation-filters="sRGB">
<feFlood flood-opacity="0" result="BackgroundImageFix"/>
<feBlend mode="normal" in="SourceGraphic" in2="BackgroundImageFix" result="shape"/>
<feGaussianBlur stdDeviation="26" result="effect1_foregroundBlur_25_70"/>
</filter>
<linearGradient id="paint0_linear_25_70" x1="9.07216" y1="8.74541e-07" x2="27.6275" y2="97.1406" gradientUnits="userSpaceOnUse">
<stop stop-color="white" stop-opacity="0.3"/>
<stop offset="1" stop-opacity="0.3"/>
</linearGradient>
<clipPath id="clip0_25_70">
<rect width="88" height="88" fill="white"/>
</clipPath>
</defs>
</svg>
