<svg width="88" height="88" viewBox="0 0 88 88" fill="none" xmlns="http://www.w3.org/2000/svg">
<g clip-path="url(#clip0_25_38)">
<mask id="mask0_25_38" style="mask-type:luminance" maskUnits="userSpaceOnUse" x="0" y="0" width="88" height="88">
<path d="M88 0H0V88H88V0Z" fill="white"/>
</mask>
<g mask="url(#mask0_25_38)">
<path d="M71 0H17C7.61116 0 0 7.61116 0 17V71C0 80.3888 7.61116 88 17 88H71C80.3888 88 88 80.3888 88 71V17C88 7.61116 80.3888 0 71 0Z" fill="#6E9CFF"/>
<path d="M71 0H17C7.61116 0 0 7.61116 0 17V71C0 80.3888 7.61116 88 17 88H71C80.3888 88 88 80.3888 88 71V17C88 7.61116 80.3888 0 71 0Z" fill="url(#paint0_linear_25_38)" fill-opacity="0.5" style="mix-blend-mode:hard-light"/>
<path d="M56 4H32C16.536 4 4 16.536 4 32V56C4 71.464 16.536 84 32 84H56C71.464 84 84 71.464 84 56V32C84 16.536 71.464 4 56 4Z" fill="#6E9CFF"/>
<g filter="url(#filter0_i_25_38)">
<path d="M29.7001 64.5333C33.1427 64.5333 35.9335 61.7426 35.9335 58.3C35.9335 54.8574 33.1427 52.0667 29.7001 52.0667C26.2576 52.0667 23.4668 54.8574 23.4668 58.3C23.4668 61.7426 26.2576 64.5333 29.7001 64.5333Z" fill="white"/>
</g>
<g filter="url(#filter1_i_25_38)">
<path d="M58.3002 64.5333C61.7428 64.5333 64.5336 61.7426 64.5336 58.3C64.5336 54.8574 61.7428 52.0667 58.3002 52.0667C54.8577 52.0667 52.0669 54.8574 52.0669 58.3C52.0669 61.7426 54.8577 64.5333 58.3002 64.5333Z" fill="white"/>
</g>
<g filter="url(#filter2_i_25_38)">
<path d="M29.7001 35.9332C33.1427 35.9332 35.9335 33.1425 35.9335 29.6999C35.9335 26.2573 33.1427 23.4666 29.7001 23.4666C26.2576 23.4666 23.4668 26.2573 23.4668 29.6999C23.4668 33.1425 26.2576 35.9332 29.7001 35.9332Z" fill="white"/>
</g>
<g filter="url(#filter3_i_25_38)">
<path d="M58.3002 35.9332C61.7428 35.9332 64.5336 33.1425 64.5336 29.6999C64.5336 26.2573 61.7428 23.4666 58.3002 23.4666C54.8577 23.4666 52.0669 26.2573 52.0669 29.6999C52.0669 33.1425 54.8577 35.9332 58.3002 35.9332Z" fill="white"/>
</g>
<g filter="url(#filter4_f_25_38)">
<path d="M168 67H-79V150H168V67Z" fill="#1D222C" fill-opacity="0.5"/>
</g>
</g>
</g>
<defs>
<filter id="filter0_i_25_38" x="23.4668" y="52.0667" width="12.4668" height="14.4666" filterUnits="userSpaceOnUse" color-interpolation-filters="sRGB">
<feFlood flood-opacity="0" result="BackgroundImageFix"/>
<feBlend mode="normal" in="SourceGraphic" in2="BackgroundImageFix" result="shape"/>
<feColorMatrix in="SourceAlpha" type="matrix" values="0 0 0 0 0 0 0 0 0 0 0 0 0 0 0 0 0 0 127 0" result="hardAlpha"/>
<feOffset dy="2"/>
<feGaussianBlur stdDeviation="2"/>
<feComposite in2="hardAlpha" operator="arithmetic" k2="-1" k3="1"/>
<feColorMatrix type="matrix" values="0 0 0 0 0 0 0 0 0 0 0 0 0 0 0 0 0 0 0.15 0"/>
<feBlend mode="normal" in2="shape" result="effect1_innerShadow_25_38"/>
</filter>
<filter id="filter1_i_25_38" x="52.0669" y="52.0667" width="12.4668" height="14.4666" filterUnits="userSpaceOnUse" color-interpolation-filters="sRGB">
<feFlood flood-opacity="0" result="BackgroundImageFix"/>
<feBlend mode="normal" in="SourceGraphic" in2="BackgroundImageFix" result="shape"/>
<feColorMatrix in="SourceAlpha" type="matrix" values="0 0 0 0 0 0 0 0 0 0 0 0 0 0 0 0 0 0 127 0" result="hardAlpha"/>
<feOffset dy="2"/>
<feGaussianBlur stdDeviation="2"/>
<feComposite in2="hardAlpha" operator="arithmetic" k2="-1" k3="1"/>
<feColorMatrix type="matrix" values="0 0 0 0 0 0 0 0 0 0 0 0 0 0 0 0 0 0 0.15 0"/>
<feBlend mode="normal" in2="shape" result="effect1_innerShadow_25_38"/>
</filter>
<filter id="filter2_i_25_38" x="23.4668" y="23.4666" width="12.4668" height="14.4666" filterUnits="userSpaceOnUse" color-interpolation-filters="sRGB">
<feFlood flood-opacity="0" result="BackgroundImageFix"/>
<feBlend mode="normal" in="SourceGraphic" in2="BackgroundImageFix" result="shape"/>
<feColorMatrix in="SourceAlpha" type="matrix" values="0 0 0 0 0 0 0 0 0 0 0 0 0 0 0 0 0 0 127 0" result="hardAlpha"/>
<feOffset dy="2"/>
<feGaussianBlur stdDeviation="2"/>
<feComposite in2="hardAlpha" operator="arithmetic" k2="-1" k3="1"/>
<feColorMatrix type="matrix" values="0 0 0 0 0 0 0 0 0 0 0 0 0 0 0 0 0 0 0.15 0"/>
<feBlend mode="normal" in2="shape" result="effect1_innerShadow_25_38"/>
</filter>
<filter id="filter3_i_25_38" x="52.0669" y="23.4666" width="12.4668" height="14.4666" filterUnits="userSpaceOnUse" color-interpolation-filters="sRGB">
<feFlood flood-opacity="0" result="BackgroundImageFix"/>
<feBlend mode="normal" in="SourceGraphic" in2="BackgroundImageFix" result="shape"/>
<feColorMatrix in="SourceAlpha" type="matrix" values="0 0 0 0 0 0 0 0 0 0 0 0 0 0 0 0 0 0 127 0" result="hardAlpha"/>
<feOffset dy="2"/>
<feGaussianBlur stdDeviation="2"/>
<feComposite in2="hardAlpha" operator="arithmetic" k2="-1" k3="1"/>
<feColorMatrix type="matrix" values="0 0 0 0 0 0 0 0 0 0 0 0 0 0 0 0 0 0 0.15 0"/>
<feBlend mode="normal" in2="shape" result="effect1_innerShadow_25_38"/>
</filter>
<filter id="filter4_f_25_38" x="-131" y="15" width="351" height="187" filterUnits="userSpaceOnUse" color-interpolation-filters="sRGB">
<feFlood flood-opacity="0" result="BackgroundImageFix"/>
<feBlend mode="normal" in="SourceGraphic" in2="BackgroundImageFix" result="shape"/>
<feGaussianBlur stdDeviation="26" result="effect1_foregroundBlur_25_38"/>
</filter>
<linearGradient id="paint0_linear_25_38" x1="9.07216" y1="8.74541e-07" x2="27.6275" y2="97.1406" gradientUnits="userSpaceOnUse">
<stop stop-color="white" stop-opacity="0.3"/>
<stop offset="1" stop-opacity="0.3"/>
</linearGradient>
<clipPath id="clip0_25_38">
<rect width="88" height="88" fill="white"/>
</clipPath>
</defs>
</svg>
